<?xml version="1.0" encoding="UTF-8" standalone="no"?>
<svg
   width="1024"
   height="1024"
   version="1.1"
   id="svg8"
   sodipodi:docname="consulta-resultados.svg"
   inkscape:version="1.3.2 (091e20ef0f, 2023-11-25)"
   xmlns:inkscape="http://www.inkscape.org/namespaces/inkscape"
   xmlns:sodipodi="http://sodipodi.sourceforge.net/DTD/sodipodi-0.dtd"
   xmlns="http://www.w3.org/2000/svg"
   xmlns:svg="http://www.w3.org/2000/svg">
  <defs
     id="defs8" />
  <sodipodi:namedview
     id="namedview8"
     pagecolor="#505050"
     bordercolor="#eeeeee"
     borderopacity="1"
     inkscape:showpageshadow="0"
     inkscape:pageopacity="0"
     inkscape:pagecheckerboard="0"
     inkscape:deskcolor="#505050"
     inkscape:zoom="0.90136719"
     inkscape:cx="572.4637"
     inkscape:cy="631.81798"
     inkscape:window-width="2160"
     inkscape:window-height="1251"
     inkscape:window-x="0"
     inkscape:window-y="0"
     inkscape:window-maximized="1"
     inkscape:current-layer="svg8" />
  <circle
     style="fill:#ffffff;fill-opacity:1;stroke-width:0;paint-order:stroke fill markers"
     id="path9"
     cx="514.10187"
     cy="512.73669"
     r="412.104"
     sodipodi:insensitive="true" />
  <path
     fill="#cccdce"
     d="m 693.4723,242.32321 c 11.90206,-1.75773 22.24217,-1.44897 32.24153,5.98751 15.48213,11.51317 14.95891,26.41131 15.26009,43.71261 l -67.16947,0.0825 -0.0968,-1.53007 c -0.83319,-14.16311 -1.99285,-30.52866 9.47614,-40.76358 3.19316,-2.84955 7.60311,-4.0193 10.28844,-7.48891 z"
     id="path1"
     style="stroke-width:1.6" />
  <path
     fill="#cccdce"
     d="m 347.89812,707.58777 183.2036,-0.0896 c 9.6509,0.001 19.37657,0.16291 29.01209,-0.17075 -2.01482,23.96926 6.18846,36.01721 36.68886,48.21668 -3.62733,0.0285 -7.39537,-0.0782 -10.99192,0.22767 l -235.90441,-0.042 c -26.07724,0.003 -40.51515,1.52885 -55.47515,-16.50216 -8.52646,-10.27722 -8.47038,-20.33105 -9.04417,-31.60069 20.82421,0.46881 41.69129,-0.35785 62.5111,-0.0392 z"
     id="path2"
     style="stroke-width:1.6" />
  <path
     fill="#ffffff"
     d="m 334.84012,707.67986 c -0.87323,-10.49619 0.83686,-47.19827 0.838,-57.72083 l 0.084,-336.09913 c -0.0716,-45.05813 2.92744,-72.29492 56.99525,-72.27745 l 265.51304,0.0353 c 11.80285,-0.0919 23.41834,0.018 35.20188,0.70535 -2.77412,3.4696 -7.32993,4.63937 -10.62869,7.48891 -11.84826,10.23492 -10.65027,26.60048 -9.78953,40.76358 l 0.10001,1.53007 c -1.04244,4.84415 -0.34408,17.44859 -0.34294,23.22706 l 0.0109,369.39039 c 0.0216,25.28362 5.18148,64.71828 -30.52912,70.45166 -6.41016,1.02996 -12.61249,0.62544 -19.05671,0.58587 l -24.15986,-0.0142 c -5.55621,-0.0495 -11.29979,0.42869 -16.82536,0.0253 3.7155,-0.47266 7.60815,-0.30778 11.35545,-0.35175 -31.50909,-18.84896 -37.13427,-26.46272 -35.05282,-63.49673 -9.95418,0.51553 10.0397,16.17501 0.0696,16.17283 z"
     id="path3"
     style="fill:#f2f2f2;stroke-width:1.6"
     sodipodi:nodetypes="ccccccscccccccccccc" />
  <path
     fill="#f93534"
     d="m 442.82914,407.10426 c 1.72079,-3.80464 5.61283,-6.51517 8.7534,-9.09883 2.934,2.83251 6.2367,5.1229 8.93879,8.22187 -2.11344,0.50897 -4.27976,0.90023 -6.16693,2.02885 0.89247,4.64635 2.58507,9.08402 3.46696,13.69441 -1.04827,4.20927 -2.66754,11.55347 -4.36789,15.27069 l -5.6826,0.091 c -1.11737,-4.4842 -2.18255,-8.96699 -3.04118,-13.50971 0.57877,-5.48664 2.71971,-10.58839 3.23291,-16.02216 -1.737,-0.14522 -3.43171,-0.29043 -5.13346,-0.67605 z"
     id="path4"
     style="stroke-width:1.6" />
  <path
     fill="#f93534"
     d="m 537.4233,301.24475 c -11.17582,0.10665 -13.99642,-0.97881 -13.06213,-13.2811 0.32639,-4.30597 2.02892,-6.75737 5.56272,-8.87476 4.71106,-0.30801 9.44997,-0.0426 14.17091,-0.0981 l 28.3009,-0.56132 c 8.76836,-0.19196 20.27354,-1.38291 28.57329,-0.97841 4.82722,22.94069 4.14787,25.98005 -15.59546,23.17794 -6.01147,-2.00777 -39.9918,-0.36869 -47.95023,0.61571 z"
     id="path5"
     style="stroke-width:1.6" />
  <path
     fill="#25ccf8"
     d="m 429.71875,605.89238 c 44.97458,-0.91233 91.81889,-0.75953 136.90778,0.20445 5.68833,0.12201 11.09305,-0.0726 16.80008,0.4023 3.00409,1.83565 3.88783,3.89006 4.96284,7.10739 -2.40284,10.03343 -12.245,7.83725 -20.49885,7.63499 -8.18788,-0.66831 -16.50438,-0.38032 -24.71536,-0.37813 l -86.78348,10e-4 c -11.65913,0.002 -23.29079,-0.17477 -34.93564,0.48254 -9.90153,0.5595 -15.08863,-7.66796 -9.20904,-13.30903 3.48993,-3.34924 12.81109,-2.15112 17.47167,-2.14562 z"
     id="path6"
     style="stroke-width:1.6" />
  <path
     fill="#25ccf8"
     d="m 415.81396,505.11507 c 6.86116,-0.52652 14.12793,-0.004 21.03305,0.008 l 117.65542,0.01 c 4.85404,0.003 26.34656,-1.04863 29.53751,1.17174 5.41354,3.76693 5.49488,13.24747 -1.87192,14.24224 -4.92657,0.33195 -9.98947,0.002 -14.93693,-10e-4 l -112.22541,-0.006 c -7.20301,0.003 -34.65756,0.90025 -40.00292,-0.77821 -8.26153,-2.5963 -5.16402,-11.62837 0.8112,-14.64456 z"
     id="path7"
     style="stroke-width:1.6" />
  <path
     fill="#25ccf8"
     d="m 419.43141,555.00964 c 10.35439,-0.39021 20.8297,-0.0802 31.19729,-0.0836 l 100.25738,0.001 c 10.69955,0.004 21.531,-0.20006 32.19758,0.71557 7.68005,5.22117 6.02136,14.12463 -3.32067,14.71929 -11.26784,0.59906 -22.70823,0.19566 -33.99804,0.19677 l -109.88193,-0.0652 c -5.78835,-0.0154 -11.88228,0.6826 -17.63325,0.25501 -10.02134,-0.74636 -12.04496,-14.8413 1.18164,-15.73934 z"
     id="path8"
     style="stroke-width:1.6" />
  <path
     fill="#0084ed"
     d="m 466.54233,390.07261 c 9.7495,0.60907 25.24154,4.60968 30.6457,13.63238 0.52025,5.11653 1.09762,26.92707 -0.27353,30.75354 -2.81557,0.63868 -5.55361,1.81384 -8.39809,2.26149 -9.17707,1.44516 -25.46217,0.75219 -35.06294,0.50123 1.70035,-3.71722 3.31962,-11.06142 4.36789,-15.27069 2.12896,-4.79227 3.28509,-10.16894 4.67244,-15.2164 2.28685,-6.09643 2.92907,-10.37832 4.04853,-16.66155 z"
     id="path9-3"
     style="stroke-width:1.6" />
  <path
     fill="#0084ed"
     d="m 435.88888,389.42546 c 1.23014,1.6362 2.16914,11.35185 2.82403,14.13783 1.59109,6.77035 3.65801,13.69863 6.01678,20.23918 0.85863,4.54272 1.92381,9.02551 3.04118,13.50971 -6.38971,1.06589 -13.44205,0.61895 -19.92409,0.61895 -15.16424,7e-4 -24.65431,2.28053 -23.85983,-15.43564 1.03346,-23.04137 9.33922,-29.42261 31.90193,-33.07003 z"
     id="path10"
     style="stroke-width:1.6" />
  <path
     fill="#2f2f2e"
     d="m 424.47569,355.72732 c -0.80999,-10.80481 -1.88997,-21.25645 5.73691,-30.0902 9.73468,-11.27359 36.66599,-15.78812 40.08431,1.98727 17.34466,1.9506 10.74066,19.95649 9.67266,30.1212 -4.4405,-2.49693 -4.91706,1.44233 -6.64067,4.55823 -2.88748,5.22016 1.07789,-13.01061 -6.46229,-16.79056 -5.83137,0.63869 -11.32859,2.8459 -17.11272,3.75598 -5.56489,0.87555 -11.19042,0.3271 -16.75038,1.31403 -0.64292,3.59879 -0.62248,7.05728 -0.61542,10.69767 -2.42927,-2.63936 -4.69429,-3.98158 -7.9124,-5.55362 z"
     id="path11"
     style="stroke-width:1.6" />
  <path
     fill="#f8c11b"
     d="m 433.00351,350.58327 c 5.55996,-0.98693 11.18549,-0.43848 16.75038,-1.31403 5.78413,-0.91008 11.28135,-3.11729 17.11272,-3.75598 7.54018,3.77995 3.57481,22.01072 6.46229,16.79056 1.72361,-3.1159 2.20017,-7.05516 6.64067,-4.55823 1.74617,5.58605 -4.82117,11.32225 -7.39637,15.61893 -1.31897,2.20017 -5.39077,11.83828 -6.5194,14.76523 -3.18638,4.55118 -9.93561,6.87611 -14.85688,8.97335 -5.45633,-2.27841 -10.42906,-5.55856 -13.42229,-10.74983 -3.62558,-9.75018 -14.19705,-22.34276 -13.29894,-30.62595 3.21811,1.57204 5.48313,2.91426 7.9124,5.55362 -0.006,-3.64039 -0.0274,-7.09888 0.61542,-10.69767 z"
     id="path12"
     style="stroke-width:1.6" />
  <path
     d="m 538.86685,396.21892 c 2.39076,1.2662 4.96005,2.15289 7.34557,3.39955 0.15321,6.57229 0.11034,13.46474 0.0101,20.04118 l 18.72468,-11.30641 c 0.64341,-0.39306 1.31269,-0.86101 2.01434,-1.13777 0.71901,0.3256 1.41072,0.81164 2.09321,1.21483 l 11.53125,6.79676 c 2.44285,1.4677 4.86996,2.97537 7.3602,4.36168 0.12049,-1.67879 0.0246,-3.43266 0.0245,-5.11978 l 0.0118,-10.34047 c 0.009,-1.37437 -0.1534,-3.13221 0.0359,-4.45303 l 4.41342,-1.99264 c 0.98745,-0.45149 1.98757,-0.98039 3.0358,-1.26836 0.14308,1.17611 -0.0456,2.44556 -0.0584,3.63326 -0.0291,2.68434 -0.0175,5.37373 0.008,8.05825 -0.0776,4.27558 -0.015,8.56437 -0.0137,12.8414 l 0.007,3.41765 c 0.002,1.16761 0.15248,2.48734 -0.48876,3.52889 -2.16953,3.52273 -5.59333,1.06451 -7.97812,-0.37715 l -14.6782,-8.7704 c -1.74482,-1.03231 -3.53486,-2.0241 -5.25164,-3.0991 -6.31289,4.04621 -12.9114,7.6357 -19.29991,11.55946 -1.58834,0.97552 -3.40118,2.60638 -5.39019,2.45244 -4.29747,-0.33247 -3.47462,-4.9718 -3.47318,-7.96618 l -0.005,-23.22457 c -0.007,-0.74923 -0.0463,-1.50225 0.0214,-2.24949 z"
     id="path1-9"
     style="fill:#ffd42a;stroke-width:1.6" />
  <path
     d="m 558.50592,345.41774 c 4.56101,-0.30478 6.49938,3.68964 10.45498,2.00364 8.12174,-3.4619 10.45027,-2.92338 14.62257,5.21868 1.08116,2.10967 1.15333,2.19703 3.29284,3.10291 l 3.18086,1.31648 c 2.28586,0.93246 4.38286,1.83363 5.52931,4.1808 2.32582,4.76162 -1.6873,9.04209 -3.20711,13.50869 1.80054,4.08149 5.47142,8.43014 3.07922,12.97905 -1.64135,3.12082 -5.26611,4.19889 -8.3314,5.46888 -2.46709,1.02219 -2.84568,1.37311 -3.89409,3.85575 -1.65021,3.90785 -3.62421,6.8465 -8.36395,6.5542 -2.79504,-0.24022 -4.89439,-2.56007 -7.50583,-3.37497 -3.60649,1.12457 -6.69238,4.25461 -10.74006,3.08935 -3.48964,-1.00446 -4.65019,-3.96338 -6.06218,-6.93605 -1.03123,-2.17099 -1.04732,-2.05956 -3.10761,-2.99763 -3.20077,-1.45721 -6.79332,-2.4745 -8.5783,-5.78181 -2.82271,-5.22993 1.73704,-8.87694 2.94536,-13.12051 l 0.0217,-0.078 c -1.35464,-4.4939 -5.72772,-8.20006 -3.20509,-13.1972 1.69091,-3.34909 5.32109,-4.15637 8.53434,-5.3902 4.46063,-1.7128 3.20076,-4.11966 5.9077,-7.55064 1.42357,-1.8044 3.19462,-2.59819 5.42674,-2.85146 z m 16.5613,8.39934 c -4.01023,1.22641 -6.75986,3.63616 -11.15266,2.05504 -1.57623,-0.56743 -3.07106,-1.33819 -4.65453,-1.89568 -4.01783,6.38597 -2.09682,6.79206 -9.32807,9.47061 -1.20452,0.44624 -2.3573,1.04914 -3.56416,1.47838 0.17763,0.48875 0.53633,1.12546 0.80168,1.58038 1.71208,2.93523 3.62458,6.50138 2.7178,9.95484 -0.6946,2.64508 -2.50798,4.72671 -3.37749,7.28443 1.70666,1.49791 4.7609,2.14602 6.8011,3.34909 2.84931,1.67988 4.00281,5.13606 5.44482,7.95768 0.22629,-0.11432 0.44716,-0.22683 0.68592,-0.31384 1.25336,-0.51407 2.49658,-1.05166 3.74306,-1.58202 3.58587,-1.52595 4.18876,-1.54458 7.67206,-0.0886 1.52523,0.63761 2.97666,1.38033 4.47384,2.06118 4.09036,-8.86681 4.20105,-7.13953 12.51454,-11.18304 -2.37882,-6.41907 -5.52966,-7.22799 -1.9485,-15.02396 0.5962,-1.29785 1.21085,-2.68235 1.99046,-3.88216 -6.22299,-2.75452 -7.84408,-2.02229 -11.12697,-8.29738 -0.20096,-0.38384 -1.31268,-2.85148 -1.6929,-2.92492 z"
     id="path2-2"
     style="fill:#ffd42a;stroke-width:1.6" />
</svg>
