<?xml version="1.0" encoding="UTF-8" standalone="no"?>
<svg
   width="1024"
   height="1024"
   version="1.1"
   id="svg8"
   sodipodi:docname="consulta-resultados.svg"
   inkscape:version="1.3.2 (091e20ef0f, 2023-11-25)"
   inkscape:export-filename="consulta-resultados.svg"
   inkscape:export-xdpi="96"
   inkscape:export-ydpi="96"
   xmlns:inkscape="http://www.inkscape.org/namespaces/inkscape"
   xmlns:sodipodi="http://sodipodi.sourceforge.net/DTD/sodipodi-0.dtd"
   xmlns="http://www.w3.org/2000/svg"
   xmlns:svg="http://www.w3.org/2000/svg">
  <defs
     id="defs8" />
  <sodipodi:namedview
     id="namedview8"
     pagecolor="#505050"
     bordercolor="#eeeeee"
     borderopacity="1"
     inkscape:showpageshadow="0"
     inkscape:pageopacity="0"
     inkscape:pagecheckerboard="0"
     inkscape:deskcolor="#505050"
     inkscape:zoom="0.63736285"
     inkscape:cx="47.06895"
     inkscape:cy="328.69816"
     inkscape:window-width="2160"
     inkscape:window-height="1251"
     inkscape:window-x="0"
     inkscape:window-y="0"
     inkscape:window-maximized="1"
     inkscape:current-layer="svg8" />
  <circle
     style="fill:#ececec;fill-opacity:1;stroke-width:0;paint-order:stroke fill markers"
     id="path9"
     cx="514.10187"
     cy="512.73669"
     r="412.104"
     sodipodi:insensitive="true" />
  <rect
     style="fill:#ffffff;fill-opacity:1;stroke:#000000;stroke-width:0;stroke-opacity:1;paint-order:stroke fill markers"
     id="rect14"
     width="447.06393"
     height="399.98267"
     x="292.79739"
     y="309.68582"
     ry="21.902504"
     sodipodi:insensitive="true" />
  <path
     fill="#ffffff"
     d="m 285.34587,765.98936 c -1.01166,-10.49619 0.96953,-47.19827 0.97085,-57.72083 l 0.0974,-336.09913 c -0.0829,-45.05813 3.39152,-72.29492 66.0306,-72.27745 l 307.60438,0.0353 c 13.67393,-0.0919 27.13081,0.018 40.78237,0.70535 -3.21389,3.4696 -8.49194,4.63937 -12.31364,7.48891 -13.72653,10.23492 -12.33864,26.60048 -11.34144,40.76358 l 0.11586,1.53007 c -1.2077,4.84415 -0.39863,17.44859 -0.3973,23.22706 l 0.0127,369.39039 c 0.0251,25.28362 6.00288,64.71828 -35.36886,70.45166 -7.42635,1.02996 -14.61193,0.62544 -22.07774,0.58587 l -27.98988,-0.0142 c -6.43702,-0.0495 -13.09113,0.42869 -19.49265,0.0253 4.30451,-0.47266 8.81425,-0.30778 13.15561,-0.35175 -36.50417,-18.84896 -43.02111,-26.46272 -40.60968,-63.49673 -11.5322,0.51553 11.63127,16.17501 0.0807,16.17283 z"
     id="path3"
     style="fill:none;stroke-width:1.6"
     sodipodi:nodetypes="ccccccscccccccccccc" />
  <path
     fill="#f93534"
     d="m 428.56143,483.30263 c 2.27184,-5.07019 7.41018,-8.68233 11.55645,-12.12539 3.87353,3.77469 8.23382,6.82694 11.80119,10.95673 -2.79021,0.67826 -5.65023,1.19968 -8.14173,2.70371 1.17826,6.19188 3.41287,12.10566 4.57717,18.24962 -1.38396,5.6094 -3.52175,15.39652 -5.76659,20.3502 l -7.50229,0.12127 c -1.47518,-5.9758 -2.88146,-11.94971 -4.01504,-18.00349 0.76411,-7.31168 3.59063,-14.11043 4.26817,-21.35165 -2.29324,-0.19351 -4.53063,-0.38703 -6.77733,-0.90092 z"
     id="path4"
     style="stroke-width:1.6" />
  <path
     fill="#f93534"
     d="m 607.58646,368.96156 c -14.81399,0.0999 -18.5528,-0.9165 -17.31436,-12.43575 0.43264,-4.03189 2.68941,-6.32726 7.3736,-8.30988 6.2447,-0.2884 12.5263,-0.0399 18.78409,-0.0919 l 37.51395,-0.52559 c 11.6228,-0.17974 26.87337,-1.29488 37.87501,-0.91613 6.39868,21.48051 5.49817,24.32641 -20.67239,21.70266 -7.96844,-1.87998 -53.01069,-0.34523 -63.5599,0.57652 z"
     id="path5"
     style="stroke-width:1.6" />
  <path
     fill="#25ccf8"
     d="m 396.87881,663.73014 c 72.42101,-0.85426 147.85279,-0.71119 220.45787,0.19144 9.15971,0.11424 17.86275,-0.068 27.05258,0.37669 4.83738,1.71881 6.26044,3.64246 7.99148,6.655 -3.86921,9.3948 -19.71769,7.33841 -33.00858,7.14902 -13.18466,-0.62577 -26.57643,-0.35611 -39.79828,-0.35406 l -139.74443,9.4e-4 c -18.7743,0.002 -37.50435,-0.16365 -56.25565,0.45182 -15.94409,0.52389 -24.29671,-7.17989 -14.829,-12.4619 5.61971,-3.13606 20.62925,-2.0142 28.13401,-2.00905 z"
     id="path6"
     style="stroke-width:1.6" />
  <path
     fill="#25ccf8"
     d="m 374.48842,569.36733 c 11.04829,-0.493 22.74971,-0.004 33.86878,0.007 l 189.45644,0.009 c 7.81631,0.003 42.42496,-0.98189 47.56324,1.09716 8.71724,3.52716 8.84821,12.40426 -3.01429,13.33571 -7.93309,0.31082 -16.0857,0.002 -24.05241,-9.3e-4 l -180.71269,-0.006 c -11.59876,0.003 -55.80787,0.84295 -64.41532,-0.72868 -13.30325,-2.43104 -8.31545,-10.88822 1.30625,-13.71243 z"
     id="path7"
     style="stroke-width:1.6" />
  <path
     fill="#25ccf8"
     d="m 380.31346,616.0861 c 16.67333,-0.36537 33.54135,-0.0751 50.23593,-0.0783 l 161.44097,9.4e-4 c 17.22912,0.004 34.67063,-0.18733 51.84665,0.67002 12.36692,4.88884 9.696,13.2256 -5.34716,13.7824 -18.1442,0.56093 -36.56627,0.18321 -54.74586,0.18425 l -176.93906,-0.0611 c -9.32078,-0.0144 -19.13363,0.63915 -28.39421,0.23878 -16.13702,-0.69886 -19.39559,-13.89665 1.90274,-14.73753 z"
     id="path8"
     style="stroke-width:1.6" />
  <path
     fill="#0084ed"
     d="m 459.86812,460.60571 c 12.87151,0.81166 33.32444,6.143 40.45915,18.16694 0.68685,6.81845 1.44909,35.8839 -0.36113,40.98317 -3.71718,0.85113 -7.33199,2.41717 -11.08734,3.01374 -12.11578,1.92585 -33.61572,1.00239 -46.29088,0.66794 2.24484,-4.95368 4.38263,-14.7408 5.76659,-20.3502 2.8107,-6.38634 4.33705,-13.55147 6.16865,-20.27788 3.01916,-8.1243 3.86704,-13.83048 5.34496,-22.20371 z"
     id="path9-3"
     style="stroke-width:1.6" />
  <path
     fill="#0084ed"
     d="m 419.39876,459.74329 c 1.62406,2.18044 2.86375,15.12784 3.72835,18.84053 2.10059,9.02239 4.82939,18.25523 7.94348,26.97138 1.13358,6.05379 2.53986,12.0277 4.01504,18.00349 -8.43585,1.42043 -17.7465,0.82483 -26.30423,0.82483 -20.02017,7.7e-4 -32.54917,3.0391 -31.50028,-20.57004 1.3644,-30.70568 12.32984,-39.20952 42.11764,-44.07019 z"
     id="path10"
     style="stroke-width:1.6" />
  <path
     fill="#2f2f2e"
     d="m 404.33081,414.83605 c -1.06936,-14.39882 -2.49518,-28.32703 7.574,-40.09917 12.85193,-15.02354 48.40726,-21.03976 52.92019,2.6483 22.89881,2.59945 14.18006,26.59467 12.77006,40.14049 -5.86244,-3.32749 -6.4916,1.9221 -8.76715,6.07445 -3.81212,6.95655 1.42304,-17.33835 -8.53167,-22.37565 -7.6987,0.85115 -14.95626,3.79255 -22.59259,5.00534 -7.3469,1.16678 -14.77384,0.43591 -22.11423,1.75113 -0.84879,4.79586 -0.82181,9.40476 -0.81248,14.25605 -3.20718,-3.5173 -6.1975,-5.30598 -10.44613,-7.40094 z"
     id="path11"
     style="stroke-width:1.6" />
  <path
     fill="#f8c11b"
     d="m 415.58942,407.98094 c 7.34039,-1.31522 14.76733,-0.58435 22.11423,-1.75113 7.63633,-1.21279 14.89389,-4.15419 22.59259,-5.00534 9.95471,5.0373 4.71955,29.3322 8.53167,22.37565 2.27555,-4.15235 2.90471,-9.40194 8.76715,-6.07445 2.30533,7.44416 -6.36501,15.0884 -9.76484,20.81429 -1.74134,2.93202 -7.11702,15.77608 -8.60706,19.67663 -4.20672,6.06505 -13.11721,9.16331 -19.61439,11.95817 -7.20357,-3.03628 -13.76868,-7.40751 -17.7204,-14.32557 -4.78658,-12.9934 -18.74326,-29.77468 -17.55756,-40.81314 4.24863,2.09496 7.23895,3.88364 10.44613,7.40094 -0.009,-4.85129 -0.0361,-9.46019 0.81248,-14.25605 z"
     id="path12"
     style="stroke-width:1.6" />
  <path
     d="m 603.95399,471.73117 c 3.36465,1.79875 6.98057,3.05837 10.33784,4.82935 0.21562,9.33651 0.15529,19.12783 0.0142,28.47022 l 26.35231,-16.06172 c 0.9055,-0.55838 1.84742,-1.22314 2.83489,-1.61631 1.01191,0.46255 1.98539,1.15301 2.94589,1.72578 l 16.2286,9.65538 c 3.43795,2.08499 6.85376,4.22677 10.35842,6.19614 0.16957,-2.38486 0.0346,-4.87639 0.0345,-7.27309 l 0.0166,-14.68953 c 0.0126,-1.95241 -0.21589,-4.44957 0.0505,-6.32591 l 6.21125,-2.83072 c 1.3897,-0.64138 2.79723,-1.39272 4.27246,-1.8018 0.20137,1.67076 -0.0642,3.47413 -0.0822,5.16135 -0.041,3.81333 -0.0247,7.63385 0.0112,11.44744 -0.10921,6.07383 -0.0211,12.16642 -0.0193,18.24231 l 0.01,4.85507 c 0.003,1.65869 0.21459,3.53348 -0.68787,5.01309 -3.0533,5.00434 -7.87181,1.51223 -11.22806,-0.53578 l -20.65753,-12.4591 c -2.45558,-1.46649 -4.9748,-2.87541 -7.39093,-4.40254 -8.88448,5.74799 -18.17095,10.84717 -27.16186,16.42121 -2.23536,1.38581 -4.78668,3.70258 -7.58592,3.4839 -6.04808,-0.47231 -4.89003,-7.06287 -4.88801,-11.31664 l -0.007,-32.99251 c -0.01,-1.06434 -0.0651,-2.13407 0.0301,-3.19559 z"
     id="path1-9"
     style="fill:#ffd42a;stroke-width:1.60001" />
  <path
     d="m 631.59317,399.56372 c 6.41897,-0.43296 9.14696,5.24145 14.7139,2.84634 11.43018,-4.91792 14.70726,-4.15291 20.57917,7.41359 1.52158,2.99696 1.62315,3.12107 4.6342,4.40795 l 4.47661,1.87017 c 3.21702,1.32464 6.16824,2.60483 7.78171,5.93919 3.27326,6.76429 -2.37463,12.84506 -4.51354,19.19026 2.53399,5.79811 7.70024,11.97574 4.33355,18.43785 -2.30996,4.4334 -7.41129,5.96489 -11.72525,7.76902 -3.47208,1.45211 -4.00489,1.95062 -5.48038,5.47742 -2.32243,5.55144 -5.10055,9.72604 -11.77106,9.31081 -3.93362,-0.34125 -6.88815,-3.6368 -10.56338,-4.79444 -5.07562,1.59755 -9.41857,6.04405 -15.1151,4.38869 -4.91117,-1.42692 -6.54448,-5.63033 -8.53165,-9.85325 -1.45131,-3.08409 -1.47396,-2.92579 -4.37352,-4.2584 -4.50462,-2.07009 -9.56063,-3.51523 -12.07273,-8.21356 -3.97256,-7.42956 2.44464,-12.61046 4.14518,-18.63881 l 0.0305,-0.1108 c -1.90647,-6.38398 -8.06095,-11.6489 -4.51072,-18.74777 2.37972,-4.75766 7.48868,-5.90448 12.01088,-7.65724 6.27769,-2.43318 4.5046,-5.85233 8.31423,-10.72633 2.00348,-2.56331 4.49597,-3.69096 7.63737,-4.05075 z m 23.30767,11.93199 c -5.64383,1.74222 -9.51354,5.16547 -15.69577,2.91936 -2.21833,-0.80609 -4.32208,-1.90102 -6.55059,-2.69298 -5.65452,9.07182 -2.95098,9.64871 -13.12793,13.45382 -1.69518,0.63393 -3.31756,1.49039 -5.01604,2.10016 0.24998,0.69432 0.75481,1.59882 1.12824,2.24507 2.40951,4.16974 5.10109,9.23577 3.82492,14.14171 -0.97755,3.75756 -3.52962,6.7147 -4.75333,10.34815 2.40188,2.12791 6.70029,3.04862 9.57157,4.75768 4.01,2.38641 5.63339,7.29622 7.66281,11.30457 0.31847,-0.1624 0.62931,-0.32224 0.96534,-0.44584 1.76391,-0.73028 3.51357,-1.49397 5.26781,-2.24739 5.04661,-2.16775 5.89508,-2.19422 10.79733,-0.12587 2.14655,0.90578 4.18922,1.96088 6.29629,2.92808 5.7566,-12.59607 5.91238,-10.14231 17.61243,-15.88646 -3.34785,-9.11885 -7.78221,-10.26799 -2.74223,-21.34283 0.83906,-1.84371 1.70409,-3.81051 2.80128,-5.51494 -8.75797,-3.91304 -11.03942,-2.87285 -15.65962,-11.78715 -0.28282,-0.54528 -1.84741,-4.05077 -2.38251,-4.1551 z"
     id="path2-2"
     style="fill:#ffd42a;stroke-width:1.60001" />
  <ellipse
     style="fill:#ffd42a;fill-opacity:1;stroke:#000000;stroke-width:0;stroke-opacity:1;paint-order:stroke fill markers"
     id="path13"
     cx="644.49207"
     cy="440.98373"
     rx="34.908237"
     ry="31.156199" />
  <path
     fill="#b6bebf"
     d="m 275.32186,602.28557 c -4.93656,-0.0761 3.90932,-206.64572 -0.98691,-207.22601 11.76067,-0.24357 18.26196,1.61004 22.08142,21.45571 0.315,20.14647 -0.67885,225.71154 -0.71127,245.86097 -0.0144,9.23559 -0.87175,21.07704 0.56985,30.01334 1.86302,11.54154 21.37791,7.99836 29.18547,7.99035 l 373.36696,0.47687 c 8.94461,0.0159 17.98373,0.31678 26.91882,0.003 18.04999,-0.63237 13.41221,-21.31958 13.42052,-35.31389 l 0.3779,-318.56007 c 0.0135,-11.0017 3.68567,-27.69059 -11.68701,-28.38385 -7.84571,-0.35371 -15.89863,0.0955 -23.77124,0.0875 l -372.44159,-0.48692 c -41.28086,-0.11804 -35.58964,-0.26114 -35.58699,39.88836 l 0.12069,58.13715 -21.07556,-0.0318 c -0.46034,-5.06394 -0.22225,-10.34942 -0.21713,-15.44013 l 0.0621,-58.0867 c 0.0132,-19.76271 0.0143,-44.01373 26.32025,-46.14696 7.62412,-0.61863 15.60861,-0.11416 23.26942,-0.0916 l 383.12331,0.50329 c 21.10098,-0.0111 50.0472,-3.7918 53.00904,27.30055 0.73392,7.70889 0.41871,15.62064 0.40152,23.36278 l -0.40398,323.19896 c 0.007,8.01257 0.40034,16.22416 -0.20723,24.20853 -2.38657,31.39224 -34.28041,27.59343 -55.43536,27.54744 l -381.7568,-0.50771 c -19.01202,-0.0198 -43.00963,2.99439 -48.01424,-23.45602 -1.0224,-5.40123 -0.72968,-11.17038 -0.71855,-16.65355 l 0.0685,-52.57614 c 0.008,-9.02452 -0.0915,-18.07887 0.71698,-27.07381 z"
     id="path2-9"
     style="stroke-width:1.6" />
</svg>
