<?xml version="1.0" encoding="UTF-8" standalone="no"?>
<svg
   width="1024"
   height="1024"
   version="1.1"
   id="svg8"
   sodipodi:docname="estandar-de-competencia.svg"
   inkscape:version="1.3.2 (091e20ef0f, 2023-11-25)"
   xmlns:inkscape="http://www.inkscape.org/namespaces/inkscape"
   xmlns:sodipodi="http://sodipodi.sourceforge.net/DTD/sodipodi-0.dtd"
   xmlns="http://www.w3.org/2000/svg"
   xmlns:svg="http://www.w3.org/2000/svg">
  <defs
     id="defs8" />
  <sodipodi:namedview
     id="namedview8"
     pagecolor="#505050"
     bordercolor="#eeeeee"
     borderopacity="1"
     inkscape:showpageshadow="0"
     inkscape:pageopacity="0"
     inkscape:pagecheckerboard="0"
     inkscape:deskcolor="#505050"
     inkscape:zoom="0.63736285"
     inkscape:cx="422.05158"
     inkscape:cy="603.26704"
     inkscape:window-width="2160"
     inkscape:window-height="1251"
     inkscape:window-x="0"
     inkscape:window-y="0"
     inkscape:window-maximized="1"
     inkscape:current-layer="svg8" />
  <circle
     style="fill:#ffffff;fill-opacity:1;stroke-width:0;paint-order:stroke fill markers"
     id="path9"
     cx="514.10187"
     cy="512.73669"
     r="412.104" />
  <path
     fill="#b6bebf"
     d="m 430.32645,291.99121 c 0.067,-4.91303 198.81432,3.63867 199.36643,-1.23484 0.24916,11.70411 -1.52596,18.17654 -20.61423,22.00192 -19.38209,0.33807 -217.15306,-0.40041 -236.53844,-0.4081 -8.88538,-0.003 -20.27886,-0.84188 -28.87447,0.60371 -11.10151,1.86818 -7.66809,21.28539 -7.65053,29.05557 l 0.0121,371.58114 c -0.004,8.90184 -0.28209,17.89808 0.0307,26.79004 0.63114,17.96285 20.52802,13.32203 33.99165,13.31325 l 306.48026,-0.0123 c 10.58452,0 26.64516,3.63427 27.29276,-11.6657 0.33039,-7.8086 -0.11196,-15.82245 -0.11415,-23.65739 l -10e-4,-370.66022 c 0.0615,-41.08349 0.20635,-35.41968 -38.42062,-35.36809 l -55.93234,0.19099 0.004,-20.97476 c 4.87132,-0.4643 9.95667,-0.2338 14.85433,-0.2349 l 55.88404,-0.009 c 19.01329,-0.011 42.34468,-0.0395 44.43019,26.13805 0.6048,7.58688 0.12952,15.53378 0.11745,23.15797 l -10e-4,381.29084 c 0.0373,21.00001 3.71112,49.80313 -26.19842,52.7887 -7.41564,0.73981 -15.02776,0.43576 -22.47633,0.42808 l -310.94326,-0.008 c -7.70871,0.0165 -15.60841,0.4182 -23.29077,-0.17672 -30.2048,-2.33687 -26.59028,-34.08275 -26.57272,-55.13654 l 0.007,-379.93087 c -0.005,-18.92108 -2.93508,-42.8002 22.50597,-47.81311 5.19512,-1.0241 10.74587,-0.73981 16.02112,-0.73542 l 50.58245,0.004 c 8.68231,-0.003 17.39317,-0.11306 26.04804,0.68053 z"
     id="path2"
     style="stroke-width:1.6"
     sodipodi:nodetypes="ccccccccccsccccccccccccccccccccc" />
  <path
     fill="#ffffff"
     d="m 609.35449,312.52143 55.93233,-0.19099 c 38.62698,-0.0516 38.48209,-5.7154 38.42062,35.36809 l 10e-4,370.66021 c 0.002,7.83494 0.44455,15.8488 0.11416,23.65739 -0.64761,15.29998 -16.70825,11.6657 -27.29277,11.6657 l -306.48026,0.0123 c -13.46363,0.009 -33.36051,4.64959 -33.99165,-13.31325 -0.31283,-8.89197 -0.0351,-17.88821 -0.0307,-26.79005 l -0.0121,-371.58114 c -0.0176,-7.77018 -3.45097,-27.18739 7.65054,-29.05557 8.5956,-1.44559 19.98908,-0.60699 28.87446,-0.6037 19.38538,0.008 38.8015,0.22062 58.18359,-0.11745 -0.034,10.49342 -0.19977,21.01428 0.0834,31.5044 58.47666,1.3512 120.14525,0.92531 178.66033,0.0505 -0.19758,-10.41878 -0.12184,-20.84525 -0.11306,-31.26622 z"
     id="path3"
     style="stroke-width:1.6" />
  <path
     d="m 392.91354,651.96461 c 8.25647,-0.41001 16.59745,-0.1711 24.86539,-0.17423 l 71.90349,-0.0157 c 5.88094,10e-4 17.093,-1.79234 21.81799,2.58628 7.09009,6.57263 2.15019,15.78996 -9.28827,15.67624 l -74.76519,-0.0189 c -13.23289,-0.007 -41.11438,5.40729 -46.28068,-7.86316 1.14865,-7.07757 4.79593,-9.48232 11.74727,-10.1907 z"
     id="path2-3"
     style="stroke-width:1.6;fill:#4d4d4d" />
  <path
     d="m 422.87637,592.60232 57.1276,-0.0323 c 6.41405,0.002 28.10371,-1.46997 32.20065,2.77616 3.30405,3.42402 3.83925,9.85372 0.18675,13.25062 -3.9634,3.68797 -12.25952,2.44752 -17.14517,2.44856 l -21.34852,-0.0167 -74.02968,0.0125 c -7.25805,-10e-4 -17.52178,1.30305 -18.19157,-8.94503 -0.70525,-10.79371 13.45407,-9.53031 20.15502,-9.52822 z"
     id="path3-5"
     style="stroke-width:1.6;fill:#4d4d4d" />
  <path
     d="m 389.8724,415.15497 c 13.96943,-0.48825 28.13397,-0.0219 42.12323,-0.0146 h 171.64674 c 13.26627,0.0157 26.64731,-0.43922 39.8948,-0.0375 6.23982,0.18987 8.48182,2.25242 10.26164,8.25125 -1.37295,5.13186 -2.91699,8.87826 -8.82192,9.31539 -7.27788,0.51538 -14.64444,0.10746 -21.93901,0.17527 l -181.0696,10e-4 c -8.79375,0 -51.11938,0.83983 -56.29611,-0.90974 -6.5455,-6.1428 -5.95605,-14.78736 4.20023,-16.78106 z"
     id="path5"
     style="stroke-width:1.6;fill:#4d4d4d" />
  <path
     d="m 394.09766,533.25672 c 22.56184,0.64891 45.26974,0.13875 67.84619,0.13771 h 151.83184 c 7.29457,-0.009 32.13806,-2.21904 37.35338,2.61549 7.06401,6.54654 1.00468,15.22345 -9.73687,15.39038 l -222.77865,0.0292 c -12.45669,0.007 -34.21417,4.98685 -37.54639,-9.04728 1.90711,-7.42811 5.68167,-8.64769 13.0305,-9.12551 z"
     id="path6"
     style="stroke-width:1.6;fill:#4d4d4d" />
  <path
     d="m 390.40655,474.28357 c 13.39877,-0.78559 27.13973,-0.1951 40.5771,-0.1951 l 167.7136,0.0167 c 8.3149,0.005 45.43563,-2.09072 50.81058,1.81112 7.66806,5.56587 4.14805,15.41542 -4.54972,16.42635 l -224.39677,0.0229 c -6.75624,0.005 -29.97013,1.8466 -35.05087,-1.61499 -7.53036,-5.12977 -3.48558,-15.76804 4.89608,-16.46703 z"
     id="path7"
     style="stroke-width:1.6;fill:#4d4d4d" />
  <path
     d="m 577.36126,594.0313 0.69064,-0.0215 c 7.30083,-0.20103 14.66426,-0.0163 21.9724,-0.0395 12.00182,-0.0386 27.99208,-2.03769 31.65189,10.71159 1.61081,5.60792 0.40792,21.8003 0.63118,28.48635 12.26994,1.06007 31.50792,-3.90271 31.81673,11.76565 0.22221,11.29488 1.88311,46.6116 -0.63119,56.56293 -2.54558,10.06987 -15.08365,8.63782 -24.53571,8.64211 l -20.22387,-0.006 -46.20869,0.0118 c -12.38262,0 -35.52974,3.46287 -38.83483,-9.52694 -1.35313,-5.31327 -0.61032,-18.63038 -0.61241,-24.74687 l 0.007,-19.06421 c 0.0219,-21.77539 1.42407,-25.31041 29.18246,-23.18424 0.36827,-14.00522 -5.59821,-36.48503 15.09409,-39.59139 z m -17.16917,61.22417 -0.0428,33.05825 c 25.69271,0.35394 51.5127,0.29638 77.20749,0.0488 0.0157,-10.94181 0.40688,-21.99188 -0.14188,-32.91909 -25.65933,-0.0979 -51.3729,0.31098 -77.02284,-0.18814 z m 19.28493,-39.5261 c -0.12937,5.82613 -0.11894,11.64968 -0.10851,17.47667 12.09364,0.79463 24.29055,0.10223 36.41131,0.48622 -0.434,-5.7763 -0.37036,-11.54659 -0.51433,-17.32976 -9.12343,-0.97761 -25.94727,-0.81353 -35.78847,-0.63313 z"
     id="path8"
     style="stroke-width:1.6;fill:#0580a7;fill-opacity:1" />
  <path
     fill="#f93534"
     d="m 584.5366,379.03881 c -11.17582,0.10665 -13.99642,-0.97881 -13.06213,-13.2811 0.32639,-4.30597 2.02892,-6.75737 5.56272,-8.87476 4.71106,-0.30801 9.44997,-0.0426 14.17091,-0.0981 l 28.3009,-0.56132 c 8.76836,-0.19196 20.27354,-1.38291 28.57329,-0.97841 4.82722,22.94069 4.14787,25.98005 -15.59546,23.17794 -6.01147,-2.00777 -39.9918,-0.36869 -47.95023,0.61571 z"
     id="path5-2"
     style="stroke-width:1.6" />
</svg>
