<?xml version="1.0" encoding="UTF-8" standalone="no"?>
<svg
   width="1024"
   height="1024"
   version="1.1"
   id="svg8"
   sodipodi:docname="presenta-evaluacion.svg"
   inkscape:version="1.3.2 (091e20ef0f, 2023-11-25)"
   xmlns:inkscape="http://www.inkscape.org/namespaces/inkscape"
   xmlns:sodipodi="http://sodipodi.sourceforge.net/DTD/sodipodi-0.dtd"
   xmlns="http://www.w3.org/2000/svg"
   xmlns:svg="http://www.w3.org/2000/svg">
  <defs
     id="defs8" />
  <sodipodi:namedview
     id="namedview8"
     pagecolor="#505050"
     bordercolor="#eeeeee"
     borderopacity="1"
     inkscape:showpageshadow="0"
     inkscape:pageopacity="0"
     inkscape:pagecheckerboard="0"
     inkscape:deskcolor="#505050"
     inkscape:zoom="0.90136719"
     inkscape:cx="511.44529"
     inkscape:cy="555.2676"
     inkscape:window-width="2160"
     inkscape:window-height="1251"
     inkscape:window-x="0"
     inkscape:window-y="0"
     inkscape:window-maximized="1"
     inkscape:current-layer="svg8" />
  <circle
     style="fill:#ffffff;fill-opacity:1;stroke-width:0;paint-order:stroke fill markers"
     id="path9"
     cx="514.10187"
     cy="512.73669"
     r="412.104" />
  <path
     fill="#0580a7"
     d="m 474.46028,271.07012 c 10.71733,-50.50068 78.29341,-52.32868 90.65391,-0.12283 14.70615,0.15576 29.47597,-0.30701 44.16785,0.0982 l 0.0768,20.50113 -0.004,20.97477 c -0.009,10.42097 -0.0845,20.84743 0.11306,31.26621 -58.51508,0.87482 -120.18367,1.3007 -178.66033,-0.0505 -0.28319,-10.49013 -0.11745,-21.01098 -0.0834,-31.5044 -0.0702,-11.70851 0.1405,-23.44555 -0.10866,-35.14966 l 0.0713,-5.99749 28.65823,-0.0999 c 4.99425,-0.006 10.14108,-0.27595 15.11557,0.0844 z"
     id="path1"
     style="stroke-width:1.6" />
  <path
     fill="#b6bebf"
     d="m 430.32645,291.99121 c 0.067,-4.91303 -0.26343,-10.03461 0.28868,-14.90812 0.24916,11.70411 0.0384,23.44115 0.10867,35.14966 -19.38209,0.33807 -38.79821,0.12513 -58.18359,0.11744 -8.88538,-0.003 -20.27886,-0.84188 -28.87447,0.60371 -11.10151,1.86818 -7.66809,21.28539 -7.65053,29.05557 l 0.0121,371.58114 c -0.004,8.90184 -0.28209,17.89808 0.0307,26.79004 0.63114,17.96285 20.52802,13.32203 33.99165,13.31325 l 306.48026,-0.0123 c 10.58452,0 26.64516,3.63427 27.29276,-11.6657 0.33039,-7.8086 -0.11196,-15.82245 -0.11415,-23.65739 l -10e-4,-370.66022 c 0.0615,-41.08349 0.20635,-35.41968 -38.42062,-35.36809 l -55.93234,0.19099 0.004,-20.97476 c 4.87132,-0.4643 9.95667,-0.2338 14.85433,-0.2349 l 55.88404,-0.009 c 19.01329,-0.011 42.34468,-0.0395 44.43019,26.13805 0.6048,7.58688 0.12952,15.53378 0.11745,23.15797 l -10e-4,381.29084 c 0.0373,21.00001 3.71112,49.80313 -26.19842,52.7887 -7.41564,0.73981 -15.02776,0.43576 -22.47633,0.42808 l -310.94326,-0.008 c -7.70871,0.0165 -15.60841,0.4182 -23.29077,-0.17672 -30.2048,-2.33687 -26.59028,-34.08275 -26.57272,-55.13654 l 0.007,-379.93087 c -0.005,-18.92108 -2.93508,-42.8002 22.50597,-47.81311 5.19512,-1.0241 10.74587,-0.73981 16.02112,-0.73542 l 50.58245,0.004 c 8.68231,-0.003 17.39317,-0.11306 26.04804,0.68053 z"
     id="path2"
     style="stroke-width:1.6" />
  <path
     fill="#ffffff"
     d="m 609.35449,312.52143 55.93233,-0.19099 c 38.62698,-0.0516 38.48209,-5.7154 38.42062,35.36809 l 10e-4,370.66021 c 0.002,7.83494 0.44455,15.8488 0.11416,23.65739 -0.64761,15.29998 -16.70825,11.6657 -27.29277,11.6657 l -306.48026,0.0123 c -13.46363,0.009 -33.36051,4.64959 -33.99165,-13.31325 -0.31283,-8.89197 -0.0351,-17.88821 -0.0307,-26.79005 l -0.0121,-371.58114 c -0.0176,-7.77018 -3.45097,-27.18739 7.65054,-29.05557 8.5956,-1.44559 19.98908,-0.60699 28.87446,-0.6037 19.38538,0.008 38.8015,0.22062 58.18359,-0.11745 -0.034,10.49342 -0.19977,21.01428 0.0834,31.5044 58.47666,1.3512 120.14525,0.92531 178.66033,0.0505 -0.19758,-10.41878 -0.12184,-20.84525 -0.11306,-31.26622 z"
     id="path3"
     style="stroke-width:1.6" />
  <path
     fill="#cac9c9"
     d="m 651.52268,378.94676 c 8.03021,0.46678 11.74012,8.64293 5.89207,14.90216 -10.64903,11.39843 -36.31373,30.74367 -48.94223,41.24213 -26.47432,22.00923 -22.07873,24.89677 -44.8779,1.46288 -3.12035,-3.18058 -8.73443,-8.23754 -9.24522,-12.89258 -0.45519,-4.16279 4.81141,-8.30009 8.60586,-8.40665 7.98967,-0.2247 14.71684,11.06138 20.19541,15.86004 l 0.53279,0.46215 c 16.12992,-10.59923 33.88139,-27.55382 49.04763,-39.95414 5.29209,-4.3261 11.62313,-11.94165 18.79159,-12.67599 z"
     id="path7-6"
     style="stroke-width:1.6;fill:#b6bebf;fill-opacity:1" />
  <path
     fill="#cac9c9"
     d="m 650.01023,472.13326 c 8.03021,0.46678 11.74012,8.64293 5.89207,14.90216 -10.64903,11.39843 -36.31373,30.74367 -48.94223,41.24213 -26.47432,22.00923 -22.07873,24.89677 -44.8779,1.46288 -3.12035,-3.18058 -8.73443,-8.23754 -9.24522,-12.89258 -0.45519,-4.16279 4.81141,-8.30009 8.60586,-8.40665 7.98967,-0.2247 14.71684,11.06138 20.19541,15.86004 l 0.53279,0.46215 c 16.12992,-10.59923 33.88139,-27.55382 49.04763,-39.95414 5.29209,-4.3261 11.62313,-11.94165 18.79159,-12.67599 z"
     id="path7-6-7"
     style="fill:#b6bebf;fill-opacity:1;stroke-width:1.6" />
  <path
     fill="#cac9c9"
     d="m 645.70254,564.58288 c 8.03021,0.46678 11.74012,8.64293 5.89207,14.90216 -10.64903,11.39843 -36.31373,30.74367 -48.94223,41.24213 -26.47432,22.00923 -22.07873,24.89677 -44.8779,1.46288 -3.12035,-3.18058 -8.73443,-8.23754 -9.24522,-12.89258 -0.45519,-4.16279 4.81141,-8.30009 8.60586,-8.40665 7.98967,-0.2247 14.71684,11.06138 20.19541,15.86004 l 0.53279,0.46215 c 16.12992,-10.59923 33.88139,-27.55382 49.04763,-39.95414 5.29209,-4.3261 11.62313,-11.94165 18.79159,-12.67599 z"
     id="path7-6-5"
     style="fill:#b6bebf;fill-opacity:1;stroke-width:1.6" />
  <path
     fill="#0079e9"
     d="m 361.78006,401.84281 c 16.85972,-0.7431 37.67642,-0.48296 54.71506,0.17123 0.62785,16.15833 0.47418,38.41513 -0.52797,54.23319 -16.11113,0.36771 -37.9629,1.08337 -53.83145,-0.22831 -0.63224,-18.03529 0.47088,-36.1529 -0.35564,-54.17611 z"
     id="path4"
     style="stroke-width:1.6;fill:#00ae00;fill-opacity:1" />
  <path
     fill="#0079e9"
     d="m 362.89856,490.08411 c 17.85856,-0.45112 35.82141,-0.18769 53.68766,-0.0439 -1.11959,16.85423 1.6256,38.84431 -0.46979,54.21782 l -0.787,0.26344 c -15.90917,0.92091 -37.48873,0.69809 -53.21239,-0.39625 -0.14818,-5.16658 -0.47199,-52.97201 -0.12294,-53.74035 z"
     id="path5"
     style="stroke-width:1.6;fill:#00ae00;fill-opacity:1" />
  <path
     fill="#0079e9"
     d="m 365.83035,667.076 c 16.91021,-0.20635 33.827,0.17563 50.73611,-0.15147 -1.09215,17.8926 1.2096,37.61276 -0.41929,54.72932 -0.72225,0.48077 -2.4631,0.30844 -3.37963,0.33259 -16.88826,-0.40613 -33.80066,0.25026 -50.68782,-0.25136 -0.4171,-18.11652 0.63004,-36.37023 -0.36332,-54.45711 z"
     id="path6"
     style="stroke-width:1.6;fill:#b6bebf;fill-opacity:1" />
  <path
     fill="#0079e9"
     d="m 361.79323,578.11797 54.83031,-0.0274 c -1.22826,17.47659 -0.11196,37.24505 -0.41271,54.99492 -17.85857,0.49723 -36.27035,0.6992 -54.11245,-0.13611 -0.49504,-18.25698 0.45552,-36.58644 -0.30515,-54.83137 z"
     id="path7"
     style="stroke-width:1.6;fill:#00ae00;fill-opacity:1" />
</svg>
