<?xml version="1.0" encoding="UTF-8" standalone="no"?>
<svg
   width="1024"
   height="1024"
   version="1.1"
   id="svg8"
   sodipodi:docname="presenta-evaluacion.svg"
   inkscape:version="1.3.2 (091e20ef0f, 2023-11-25)"
   xmlns:inkscape="http://www.inkscape.org/namespaces/inkscape"
   xmlns:sodipodi="http://sodipodi.sourceforge.net/DTD/sodipodi-0.dtd"
   xmlns="http://www.w3.org/2000/svg"
   xmlns:svg="http://www.w3.org/2000/svg">
  <defs
     id="defs8" />
  <sodipodi:namedview
     id="namedview8"
     pagecolor="#505050"
     bordercolor="#eeeeee"
     borderopacity="1"
     inkscape:showpageshadow="0"
     inkscape:pageopacity="0"
     inkscape:pagecheckerboard="0"
     inkscape:deskcolor="#505050"
     inkscape:zoom="0.90136719"
     inkscape:cx="511.44529"
     inkscape:cy="554.15818"
     inkscape:window-width="2160"
     inkscape:window-height="1251"
     inkscape:window-x="0"
     inkscape:window-y="0"
     inkscape:window-maximized="1"
     inkscape:current-layer="svg8" />
  <circle
     style="display:inline;fill:#ffffff;fill-opacity:1;stroke-width:0;paint-order:stroke fill markers"
     id="path9"
     cx="514.10187"
     cy="512.73669"
     r="412.104" />
  <path
     fill="#80A169"
     d="m 280.48383,509.07877 c 0.91291,3.37963 -0.0979,6.89821 0.84464,10.13998 l 0.37855,0.21116 c 4.1305,-1.54704 10.47071,-3.85337 10.30332,2.96168 0.34792,-2.18488 -0.59846,-5.21003 0.19475,-7.07106 1.21115,5.24832 0.47811,11.90145 0.47702,17.32045 l -0.0164,34.65403 c -0.005,5.11484 -0.36215,10.40911 -0.0831,15.49442 0.5536,28.22957 0.10284,56.54885 0.0875,84.78826 l -0.0131,21.44624 c -0.002,4.92448 -0.30087,10.21766 0.56565,15.07648 4.5295,25.41012 36.02272,20.96376 54.76658,20.96485 l 282.85583,-0.003 c 10.87411,0 21.85653,-0.31619 32.71531,0.25164 0.42232,-7.00761 1.95294,-40.59053 0.26587,-46.61565 -2.04813,-7.31396 -15.23075,-14.26468 -21.29745,-18.60163 -28.84663,-20.62239 -39.86406,-62.22824 -26.54358,-94.81882 18.34998,-44.89685 67.43498,-63.39235 111.41718,-45.40232 3.10501,1.70568 10.18155,3.80085 12.4102,5.81287 2.06563,2.43872 6.03387,4.0886 8.64545,6.04701 44.28636,33.1803 41.12118,100.15795 -4.92666,130.61617 -5.83585,3.86102 -12.37738,6.61593 -18.1246,10.55463 l -0.38293,0.26587 c -0.64004,10.78439 -0.41685,21.62348 -0.42013,32.42209 l 0.005,48.49745 c 0.005,8.11489 0.48468,16.44299 -0.002,24.52718 -4.07,5.92009 -9.83801,10.73516 -14.82703,15.85336 -16.37517,16.79966 -14.22091,19.59176 -31.51729,3.17168 -4.00654,-3.80304 -11.48351,-8.89381 -13.33252,-14.1355 -1.50436,-4.26256 -0.6105,-38.61462 -0.83697,-46.2076 -12.18701,-0.87964 -24.45716,-0.55251 -36.67043,-0.5547 l -282.62717,0.023 c -47.19114,10e-4 -64.2361,-2.35337 -64.26181,-54.5959 z m 407.47566,16.09508 c -38.52052,3.32164 -69.0225,37.42316 -65.67789,76.37475 4.82054,56.1506 50.64189,49.44824 53.2097,77.81675 0.72101,7.9726 0.27571,16.23622 0.26696,24.24163 l -0.0142,46.15618 c 0.002,10.14435 -0.33479,20.39701 0.53719,30.50963 4.83039,5.65416 11.3938,9.80403 16.37626,15.48568 1.57767,-1.721 3.14987,-3.44637 4.75379,-5.14336 4.99231,-5.26036 11.76141,-10.02503 15.8325,-15.96598 0.48359,-23.56432 0.0514,-47.21518 0.0383,-70.78832 l -0.004,-16.28654 c -0.0733,-27.83788 4.62251,-22.47249 23.48999,-34.86191 36.37395,-23.88495 41.79404,-73.7938 12.05244,-105.1809 -14.41688,-15.21652 -39.75588,-25.01514 -60.86077,-22.35761 z"
     id="path1"
     style="fill:#b6bebf;fill-opacity:1;stroke-width:1.6" />
  <path
     fill="#80A169"
     d="m 692.85114,543.22515 c 36.84986,-2.82602 43.31918,52.10467 5.35773,58.29282 -35.37831,3.36212 -44.87059,-54.18891 -5.35773,-58.29282 z m 0.96717,11.58745 c -23.90902,4.7899 -18.11366,35.4352 3.08204,34.78422 23.36417,-4.85226 16.78435,-36.64417 -3.08204,-34.78422 z"
     id="path2"
     style="fill:#b6bebf;fill-opacity:1;stroke-width:1.6" />
  <path
     fill="#6BA57D"
     d="m 280.48383,509.07877 c -0.24617,-3.63454 0.0164,-7.36537 0.0358,-11.01196 l 0.0165,-143.86334 c -0.0822,-55.5598 8.33419,-62.42627 64.0767,-62.42299 l 345.34884,-0.0109 c 44.83667,-0.0875 49.69003,18.67274 49.68784,59.30703 l -0.008,38.83672 c -0.012,45.24586 -0.43654,90.53658 0.17068,135.77478 -2.22865,-2.01202 -9.30519,-4.10719 -12.4102,-5.81287 -0.74945,-6.72315 -0.48687,-13.64105 -0.47155,-20.39811 l 0.0164,-27.25146 c 0.001,-26.73395 -0.4442,-53.54449 0.0974,-80.27078 l -419.08685,0.39278 c -5.14001,0.008 -10.41787,0.33807 -15.5371,0.0394 0.54814,10.53822 0.25711,21.17601 0.25711,31.72954 l -0.002,120.89196 c 10e-4,12.5765 0.26696,25.21208 -0.093,37.78092 -0.279,-5.08531 0.0777,-10.37958 0.0831,-15.49442 l 0.0164,-34.65403 c 0.001,-5.419 0.73413,-12.07213 -0.47702,-17.32045 -0.79321,1.86103 0.15317,4.88618 -0.19475,7.07106 0.16739,-6.81505 -6.17282,-4.50872 -10.30332,-2.96168 l -0.37855,-0.21116 c -0.94256,-3.24177 0.0682,-6.76035 -0.84464,-10.13998 z m 142.74005,-205.14301 -71.46668,-0.0525 c -28.3171,0.004 -58.58166,-7.31833 -58.64621,31.22079 l 0.0799,44.21196 c 12.91238,1.15425 26.21426,0.47373 39.18244,0.46717 l 196.38268,-0.01 c 22.75915,0 45.54346,0.21554 68.30041,-0.047 l 83.31344,0.0459 c 15.45941,-0.001 30.97571,-0.28118 46.42419,0.25601 0.48577,-17.74167 3.82492,-56.5018 -7.69579,-68.69318 -10.81612,-11.4474 -40.37062,-7.43649 -55.61122,-7.43759 z"
     id="path3"
     style="fill:#b6bebf;fill-opacity:1;stroke-width:1.6" />
  <path
     fill="#6BA57D"
     d="m 409.93732,333.99026 c 4.64439,-0.19147 13.64433,-1.15207 17.66509,1.48139 6.72315,4.40369 0.0722,9.50868 -5.83147,10.65419 -4.49231,0.19584 -27.8543,1.13347 -18.89156,-9.72203 1.79211,-2.16957 4.4759,-2.21881 7.05794,-2.41355 z"
     id="path4"
     style="fill:#b6bebf;fill-opacity:1;stroke-width:1.6" />
  <path
     fill="#6BA57D"
     d="m 332.36127,334.00776 c 9.57652,-0.24836 22.62457,-2.78882 20.35544,10.81393 -2.61705,1.06126 -4.83367,1.38511 -7.61811,1.46279 -4.65752,0.007 -29.64203,1.78117 -19.2176,-10.16404 1.67505,-1.91903 4.13564,-1.92559 6.48027,-2.11268 z"
     id="path5"
     style="fill:#b6bebf;fill-opacity:1;stroke-width:1.6" />
  <path
     fill="#6BA57D"
     d="m 375.42334,333.33162 c 5.07436,-0.16193 11.5579,-0.74289 15.60711,2.90479 8.55465,7.70673 -5.38618,10.13122 -11.32049,9.96164 -3.82711,-0.058 -23.81603,0.23085 -15.83578,-9.3577 2.6444,-3.17722 7.78769,-3.22427 11.54916,-3.50873 z"
     id="path6"
     style="fill:#b6bebf;fill-opacity:1;stroke-width:1.6" />
  <path
     fill="#6BA57D"
     d="m 660.22773,320.63149 c 27.18472,-3.21661 35.42974,37.08946 6.37086,43.22508 -28.31272,2.69583 -35.77656,-39.26778 -6.37086,-43.22508 z m 0.61378,12.25265 c -12.35549,3.64877 -7.99994,20.76791 4.17394,18.91453 4.31069,-2.05579 6.53059,-4.73082 7.90038,-9.20016 -1.63785,-6.32928 -5.2166,-10.35551 -12.07432,-9.71437 z"
     id="path7"
     style="fill:#f93534;fill-opacity:1;stroke-width:1.6" />
  <path
     fill="#6BA57D"
     d="m 600.42945,320.30435 c 26.48779,-2.79319 32.69015,38.16823 2.47045,43.29621 -28.71425,1.19255 -32.84989,-39.96691 -2.47045,-43.29621 z m 0.99781,12.25922 c -11.64106,2.33149 -13.18262,19.327 0.37308,19.75698 11.42771,-2.52624 12.79532,-18.50316 -0.37308,-19.75698 z"
     id="path8"
     style="fill:#00ae00;fill-opacity:1;stroke-width:1.6" />
  <path
     fill="#80A169"
     d="m 333.81749,670.77898 c 18.99987,0.58643 38.13432,0.15645 57.14622,0.15536 l 140.99904,-0.002 c 4.16189,0 22.8959,-1.01203 25.5403,0.95185 3.77131,2.80195 3.27788,10.95069 -5.85007,11.24172 -7.93649,-0.49234 -15.93643,-0.2954 -23.88605,-0.29322 l -183.11362,0.023 c -4.65643,0.0131 -10.22094,0.87855 -14.75264,-0.12254 -5.62359,-4.05577 -2.69692,-11.06994 3.91682,-11.95396 z"
     id="path9-9"
     style="fill:#4d4d4d;fill-opacity:1;stroke-width:1.6" />
  <path
     fill="#80A169"
     d="m 334.31311,581.90541 c 8.90804,-0.59737 18.84889,-10e-4 27.86086,0 l 146.52635,0.012 c 6.87961,0 44.71086,-1.72646 48.34103,1.16192 5.08202,4.04264 0.63785,10.24173 -4.63017,10.64982 -16.32811,0.75492 -32.81049,0.32275 -49.15721,0.32385 l -146.7025,-0.0263 c -8.36974,0.003 -17.09507,0.86104 -25.40573,0.30197 -6.66954,-4.77678 -4.36868,-11.42881 3.16737,-12.42333 z"
     id="path10"
     style="fill:#4d4d4d;fill-opacity:1;stroke-width:1.6" />
  <path
     fill="#80A169"
     d="m 331.29453,625.62283 c 6.81506,-0.63019 16.32921,0.008 23.47577,0.0153 l 147.63138,0.01 c 15.66729,0.004 31.37725,-0.26149 47.03797,0.0208 11.22421,0.20131 14.41347,8.65311 4.91244,11.77453 -20.67054,0.88512 -41.51941,0.35558 -62.21183,0.35558 l -146.72,-0.0799 c -3.90698,-0.001 -9.55245,1.06455 -13.22858,0.0624 -6.44853,-1.75928 -8.15749,-8.8577 -0.89715,-12.15856 z"
     id="path11"
     style="fill:#4d4d4d;fill-opacity:1;stroke-width:1.6" />
  <path
     fill="#80A169"
     d="m 332.71794,536.98449 c 7.07872,-0.54923 14.47692,-0.10722 21.58957,-0.10394 l 182.38496,0.004 c 6.57326,0 14.25045,-1.24288 20.5491,0.98358 3.69253,5.56998 2.77022,10.10934 -4.15971,11.27673 l -202.49424,-0.058 c -4.52623,0.007 -21.31714,2.20239 -23.38058,-3.16956 -1.63347,-4.2538 1.80523,-7.68923 5.5109,-8.9332 z"
     id="path12"
     style="fill:#4d4d4d;fill-opacity:1;stroke-width:1.6" />
  <path
     fill="url(#gradient_0)"
     d="m 387.2121,429.75218 c 22.20006,-0.51531 44.48547,-0.13129 66.69319,-0.13348 l 223.57725,0.004 c 8.98352,0.008 19.92765,-3.06234 21.08847,7.42774 1.08315,9.79096 0.6663,64.1024 -0.95294,65.76432 -6.48355,2.74177 -56.21953,1.46498 -65.00284,0.89058 -5.72425,0.51422 -11.50977,0.35886 -17.25152,0.35777 l -248.25213,-0.005 c -12.0601,-0.0394 -24.69896,0.86651 -36.44614,0.628 -11.82159,-0.2407 -8.76581,-14.19574 -8.768,-23.35214 l 0.0755,-25.35759 c 0.0514,-9.98243 -4.54811,-24.04907 7.65968,-25.80726 14.32375,-2.06454 42.58067,-0.75602 57.57948,-0.41685 z m -53.64406,12.14325 c 0.76805,16.76246 0.63238,33.76563 0.40044,50.54779 13.49772,-0.80196 27.17596,-0.36433 40.69556,-0.36761 l 215.4482,0.01 c 31.62123,0.001 63.34749,0.52626 94.95668,-0.17177 l 1.06892,-0.14113 c 1.61487,-2.32822 0.21882,-9.92444 0.21444,-12.89816 l 0.001,-36.54461 -301.29335,0.082 c -17.13992,-0.002 -34.37613,0.43326 -51.49198,-0.5164 z"
     id="path13"
     style="fill:#25ccf8;fill-opacity:1;stroke-width:1.6" />
</svg>
