<?xml version="1.0" encoding="utf-8" ?>
<svg xmlns="http://www.w3.org/2000/svg" xmlns:xlink="http://www.w3.org/1999/xlink" width="1024" height="1024">
	<path fill="#00D4F1" transform="scale(1.6 1.6)" d="M108.982 342.568C120.537 341.707 117.394 367.208 116.471 369.109C115.84 370.407 114.355 370.912 113.123 371.466C110.748 371.616 108.043 371.631 106.534 369.41C104.623 366.599 102.583 346.574 108.982 342.568Z"/>
	<path fill="#00D4F1" transform="scale(1.6 1.6)" d="M109.178 229.029C118.358 228.771 116.137 242.312 116.141 248.118C116.144 253.216 116.509 258.613 115.857 263.669C114.627 265.104 113.284 266.125 111.717 267.145C102.166 270.893 105.047 236.557 105.989 231.722C106.975 230.622 107.97 229.859 109.178 229.029Z"/>
	<path fill="#00D4F1" transform="scale(1.6 1.6)" d="M109.731 283.716C112.256 283.643 114.518 284.649 115.57 287.106C116.616 289.549 116.436 320.622 115.414 322.946C114.646 324.691 112.678 325.234 111.037 325.803C101.788 327.454 104.963 293.448 105.801 288.961C106.289 286.342 107.653 285.196 109.731 283.716Z"/>
	<path fill="#00D4F1" transform="scale(1.6 1.6)" d="M132.682 371.615C132.589 373.03 130.488 376.233 131.319 377.143C134.462 380.586 140.226 378.238 143.267 376.121C142.193 377.237 141.473 377.799 141.258 379.378C130.682 396.137 127.917 406.641 129.136 427.472C137.522 427.89 153.27 426.547 160.433 427.764C163.063 428.493 166.27 428.14 168.999 428.125C162.658 429.092 152.934 428.161 148.734 434.06C146.19 437.633 157.239 438.264 158.739 438.294C153.111 438.582 142.007 437.441 137.294 439.033C130.236 439.635 90.8325 439.588 88.7153 437.823C86.7501 436.185 86.005 431.93 87.722 429.895C91.3091 425.644 112.001 427.736 117.254 427.765C117.31 408.202 120.164 387.419 132.682 371.615Z"/>
	<path fill="#00EE5D" transform="scale(1.6 1.6)" d="M448.627 428.188C456.24 427.482 463.916 427.718 471.555 427.72L534.998 427.715C538.963 427.706 549.509 426.256 552.654 428.797C555.09 430.766 555.42 434.741 553.304 437.092C551.027 439.624 542.667 438.994 539.355 439.014L451.459 439.015C447.535 439.015 443.337 439.261 439.442 438.792C433.723 436.562 425.09 440.096 425.538 430.495C428.509 427.164 443.526 429.543 448.627 428.188Z"/>
	<path fill="#00EE5D" transform="scale(1.6 1.6)" d="M398.207 318.594C417.741 318.329 437.302 318.543 456.838 318.541L476.923 318.517C481.126 318.5 493.715 316.792 493.696 323.6C493.675 331.642 475.658 329.127 470.997 329.115L437.969 329.111L377.401 329.096C369.223 329.097 343.545 333.293 343.056 323.326C342.699 316.064 361.153 318.527 365.436 318.526L398.207 318.594Z"/>
	<path fill="#00EE5D" transform="scale(1.6 1.6)" d="M348.535 248.57C382.712 249.045 416.954 248.636 451.136 248.624C461.456 248.62 488.758 244.492 493.416 253.628C492.989 254.964 492.413 256.088 491.713 257.3C490.355 258.184 489.232 258.658 487.632 258.949C476.326 259.545 465.2 259.581 453.862 259.582L366.284 259.574C357.413 259.586 345.361 263.134 342.799 253.08L343.006 252.703C344.379 250.147 345.484 249.061 348.535 248.57Z"/>
	<path fill="#00EE5D" transform="scale(1.6 1.6)" d="M408.755 352.658C426.346 352.322 443.982 352.584 461.578 352.585L479.318 352.576C483.912 352.549 493.276 350.752 493.863 357.585C494.674 367.017 475.074 363.737 469.02 363.737L427.031 363.719L375.156 363.738C365.594 363.74 345.402 367.839 342.633 358.198C344.075 354.52 345.294 353.325 349.297 352.874C365.535 351.046 392.005 352.425 408.755 352.658Z"/>
	<path fill="#00EE5D" transform="scale(1.6 1.6)" d="M369.464 282.975L472.145 282.945C476.955 282.945 481.966 282.721 486.749 283.186C491.57 283.656 495.841 288.171 491.276 292.4C487.839 295.584 470.737 294.29 465.781 294.064C458.933 294.459 452.033 294.292 445.175 294.295L371.655 294.296C362.532 294.293 346.35 297.65 342.488 289.006C345.948 279.601 360.365 283.142 369.464 282.975Z"/>
	<path fill="#00EE5D" transform="scale(1.6 1.6)" d="M346.642 213.848C360.392 213.673 480.664 211.73 489.046 214.329C495.005 216.177 494.524 222.962 489.402 225.304L391.906 225.254C385.442 225.258 348.981 225.906 345.875 224.744C340.849 222.864 342.093 215.399 346.642 213.848Z"/>
	<path fill="#00EE5D" transform="scale(1.6 1.6)" d="M527.466 201.323C538.111 202.142 533.649 230.813 533.649 239.764L533.633 374.97C533.617 384.343 533.879 393.756 533.646 403.124C533.534 407.637 533.295 409.804 528.812 411.406C520.455 411.186 522.521 404.013 522.571 398.126L522.558 215.168C522.542 209.787 520.843 203.29 527.466 201.323Z"/>
	<path fill="#00D4F1" transform="scale(1.6 1.6)" d="M105.942 165.356C75.8751 153.555 81.5242 117.165 107.274 114.019C115.607 113 125.319 113.658 133.815 113.657L284.346 113.652C302.286 113.652 320.277 113.36 338.211 113.744C330.452 115.755 308.512 112.912 304.131 115.215C307.956 118.596 303.884 121.692 308.15 123.193C315.648 125.831 335.197 123.073 344.448 124.709C337.203 125.079 329.862 124.856 322.606 124.856L130.155 124.833C121.771 124.825 106.154 122.368 99.9488 129.317C91.6775 138.579 98.8813 152.041 110.248 153.175C117.46 153.895 125.071 153.451 132.319 153.45L172.09 153.436C218.173 153.435 264.305 152.972 310.383 153.466L310.032 153.536C293.727 156.701 270.138 151.039 253.34 155.339L253.174 155.679C255.284 157.472 255.211 160.25 258.01 161.53C265.463 164.939 300.371 163.461 310.844 163.62C313.097 163.654 331.086 164.153 331.737 164.307C314.61 164.585 297.442 164.345 280.312 164.345L141.732 164.333C133.338 164.333 124.819 163.989 116.457 164.758C116.425 173.286 116.112 181.814 116.118 190.359C116.126 202.497 120.491 209.909 109.453 212.448C102.452 208.592 105.05 173.513 105.942 165.356Z"/>
	<path fill="#00EE5D" transform="scale(1.6 1.6)" d="M338.211 113.744C354.427 113.483 370.666 113.653 386.886 113.653L513.687 113.655C526.008 113.653 538.327 111.331 547.979 120.678C565.175 137.329 553.327 164.606 530.001 164.522L400.021 164.347C377.267 164.348 354.487 164.599 331.737 164.307C331.086 164.153 313.097 163.654 310.844 163.62C300.371 163.461 265.463 164.939 258.01 161.53C255.211 160.25 255.284 157.472 253.174 155.679L253.34 155.339C270.138 151.039 293.727 156.701 310.032 153.536L310.383 153.466L507.369 153.445C515.213 153.446 534.027 155.589 540.214 150.105C546.102 144.887 546.324 134.757 541.087 129.01C535.288 122.646 522.529 124.823 514.877 124.835L393.246 124.849C377.018 124.854 360.662 125.269 344.448 124.709C335.197 123.073 315.648 125.831 308.15 123.193C303.884 121.692 307.956 118.596 304.131 115.215C308.512 112.912 330.452 115.755 338.211 113.744Z"/>
	<path fill="#00D4F1" transform="scale(1.6 1.6)" d="M232.07 202.944C266.012 200.573 298.32 228.722 299.831 262.888C301.45 299.504 274.926 331.346 237.578 332.653C232.766 332.773 227.897 332.78 223.123 332.088C151.201 321.667 149.864 209.388 232.07 202.944ZM233.581 214.192C156.096 219.742 171.428 328.422 236.484 321.643C307.159 317.66 303.455 212.886 233.581 214.192Z"/>
	<defs>
		<linearGradient id="gradient_0" gradientUnits="userSpaceOnUse" x1="432.98483" y1="444.37485" x2="133.01833" y2="452.64661">
			<stop offset="0" stop-color="#00FEA0"/>
			<stop offset="1" stop-color="#00CAFE"/>
		</linearGradient>
	</defs>
	<path fill="url(#gradient_0)" transform="scale(1.6 1.6)" d="M132.682 371.615C149.152 344.412 180.513 343.973 207.98 343.978L266.124 343.984C283.82 343.972 300.043 344.547 315.667 354.037C343.769 371.106 350.43 397.402 349.599 427.515C358.629 427.956 367.726 427.733 376.766 427.73L420.817 427.722C430.076 427.724 439.39 427.465 448.627 428.188C443.526 429.543 428.509 427.164 425.538 430.495C425.09 440.096 433.723 436.562 439.442 438.792C404.011 441.318 362.151 438.586 325.964 439.048C324.998 452.047 325.559 465.497 325.662 478.543C337.565 478.36 375.831 476.797 386.007 479.2C403.382 483.303 414.393 498.987 414.672 516.556C414.753 521.611 415.931 548.413 413.243 551.23C407.532 554.15 372.671 552.511 364.389 552.51L247.669 552.533C224.32 552.578 225.197 555.82 225.247 530.617C225.292 508.498 224.663 490.996 248.99 481.241C261.125 476.375 298.358 478.766 314.042 478.362L314.838 439.262C306.817 438.777 298.72 438.996 290.685 438.995L137.294 439.033C142.007 437.441 153.111 438.582 158.739 438.294C157.239 438.264 146.19 437.633 148.734 434.06C152.934 428.161 162.658 429.092 168.999 428.125C166.27 428.14 163.063 428.493 160.433 427.764C153.27 426.547 137.522 427.89 129.136 427.472C127.917 406.641 130.682 396.137 141.258 379.378C141.473 377.799 142.193 377.237 143.267 376.121C140.226 378.238 134.462 380.586 131.319 377.143C130.488 376.233 132.589 373.03 132.682 371.615ZM141.258 379.378C130.682 396.137 127.917 406.641 129.136 427.472C137.522 427.89 153.27 426.547 160.433 427.764C175.175 427.349 190.019 427.726 204.774 427.73L290.126 427.734C305.927 427.733 322.006 428.354 337.771 427.495C337.521 421.783 337.837 416.039 337.426 410.333C335.685 386.128 317.923 363.866 294.216 357.833C285.851 355.705 276.967 355.989 268.395 355.991L245.328 355.998C227.247 355.871 209.489 355.203 191.229 355.351C167.117 355.546 156.658 363.72 141.258 379.378ZM325.63 490.053L325.627 522.245C325.628 528.659 325.455 535.131 325.799 541.534L374.784 541.539C384.288 541.538 393.909 541.846 403.398 541.277C404.61 530.334 404.633 507.42 398.119 499.369C388.9 487.974 373.954 490.049 360.954 490.091C349.186 490.129 337.397 490.227 325.63 490.053ZM286.905 490.156L271.592 490.095C233.493 490.203 235.758 509.485 237.182 541.622C246.293 541.474 255.419 541.478 264.531 541.575C281.211 541.493 297.949 541.264 314.623 541.611L314.69 490.354C305.571 489.571 296.067 490.11 286.905 490.156Z"/>
	<path fill="#00EE5D" transform="scale(1.6 1.6)" d="M410.139 519.569C414.951 520.572 414.763 530.043 412.427 533.021L411.749 532.53C408.712 536.111 406.729 525.573 410.139 519.569Z"/>
</svg>
